<svg width="228" height="36" viewBox="0 0 228 36" fill="none" xmlns="http://www.w3.org/2000/svg">
<!-- <rect width="228" height="36" fill="#1E1E1E"/> -->
<g id="Contact" clipPath="url(#clip0_293_10307)">
<!-- <rect width="1440" height="1028" transform="translate(-53 -57)" fill="#F9FAFB"/> -->
<g id="Frame 1204">
<!-- <rect width="345" height="1028" transform="translate(-53 -57)" fill="#4E266E"/> -->
<!-- <rect width="345" height="1028" transform="translate(-53 -57)" fill="url(#paint0_linear_293_10307)" fill-opacity="0.4"/> -->
</g>
<g id="Layer_1" clipPath="url(#clip1_293_10307)">
<g id="Group">
<path id="Vector" d="M150.502 16.6584C150.455 16.598 150.401 16.5376 150.341 16.484H150.334C149.864 16.035 149.307 15.8135 148.655 15.8135C148.004 15.8135 147.454 16.0346 146.984 16.484C146.923 16.5376 146.87 16.598 146.816 16.6584C146.46 17.0676 146.279 17.5501 146.279 18.0998C146.279 18.6495 146.46 19.1388 146.816 19.5544C146.87 19.6149 146.924 19.6684 146.984 19.7288C147.454 20.1847 148.004 20.4127 148.655 20.4127C149.307 20.4127 149.864 20.1847 150.334 19.7288H150.341C150.401 19.6684 150.455 19.6149 150.502 19.5544C150.858 19.1388 151.039 18.6495 151.039 18.0998C151.039 17.5501 150.858 17.0672 150.502 16.6584Z" fill="#F26A24"/>
<path id="Vector_2" d="M150.502 16.6584C150.448 16.598 150.394 16.5376 150.334 16.484C149.864 16.035 149.307 15.8135 148.655 15.8135C148.004 15.8135 147.454 16.0346 146.984 16.484H146.977C146.917 16.5376 146.863 16.598 146.816 16.6584C146.46 17.0676 146.279 17.5501 146.279 18.0998C146.279 18.6495 146.46 19.1388 146.816 19.5544C146.863 19.6149 146.917 19.6684 146.977 19.7288H146.984C147.454 20.1847 148.004 20.4127 148.655 20.4127C149.307 20.4127 149.864 20.1847 150.334 19.7288C150.394 19.6684 150.448 19.6149 150.502 19.5544C150.858 19.1388 151.039 18.6495 151.039 18.0998C151.039 17.5501 150.858 17.0672 150.502 16.6584Z" fill="#F26A24"/>
<path id="Vector_3" d="M161.155 23.067C161.155 23.8516 161.162 24.6425 161.135 25.4335C161.095 26.6203 160.994 27.8068 160.732 28.9735C160.04 32.0842 158.138 34.5252 155.015 35.4237C153.608 35.8281 152.134 35.9374 150.671 35.9794C149.019 36.0269 147.365 35.9918 145.717 35.8748C144.267 35.7716 142.596 35.7557 141.268 35.0925C138.701 33.9977 137.177 31.6274 136.586 28.9735C136.324 27.8068 136.223 26.6203 136.183 25.4335C136.156 24.6425 136.163 23.8511 136.163 23.067C136.183 16.745 136.204 16.0144 136.224 9.69922H140.95C140.943 16.7655 140.936 18.2536 140.923 25.3199C140.923 26.4532 140.929 27.6195 141.379 28.6586C142.077 30.2807 143.722 30.5824 145.306 30.6162C146.421 30.6364 147.736 30.6497 148.85 30.6767C149.904 30.6565 150.958 30.6364 152.012 30.6162C153.596 30.5828 155.241 30.2812 155.939 28.6586C156.389 27.6195 156.396 26.4528 156.396 25.3199C156.382 18.254 156.375 16.7655 156.369 9.69922H161.094C161.115 16.0144 161.135 16.7454 161.155 23.067H161.155Z" fill="#F26A24"/>
<path id="Vector_4" d="M227.117 21.5423V27.2945H168.177C165.008 27.2945 163.418 25.3904 163.418 21.5826V1.54395H168.177V18.9347C168.177 20.6644 168.976 21.529 170.58 21.529H176.092V10.0379H180.851V21.5286H185.134V10.0379H189.867V21.5286H194.237V10.0379H198.997V21.5286H223.116C223.258 21.5355 223.398 21.5419 223.539 21.5419H227.118L227.117 21.5423Z" fill="#F26A24"/>
<path id="Vector_5" d="M227.302 0L213.22 14.0242H206.141L220.223 0H227.302Z" fill="#F26A24"/>
<path id="Vector_6" d="M227.13 21.0628H223.539C223.398 21.0628 223.257 21.0559 223.116 21.0495C221.008 20.9488 219.001 20.064 217.504 18.5622L212.98 14.0504L213 14.0234H216.545C218.806 14.0234 220.982 14.9219 222.579 16.524L227.118 21.0495L227.131 21.0628H227.13Z" fill="#F26A24"/>
</g>
<path id="Vector_7" d="M125.732 9.68164H125.044V27.3509H125.732V9.68164Z" fill="white"/>
<path id="Vector_8" d="M14.8147 1.72852H19.459V27.3514H14.8147V25.3976C13.9073 26.2575 12.9977 26.8784 12.086 27.258C11.1743 27.6376 10.1859 27.8274 9.12142 27.8274C6.72998 27.8274 4.66246 26.9011 2.91758 25.0484C1.17398 23.1974 0.301758 20.8944 0.301758 18.1423C0.301758 15.3903 1.14481 12.9484 2.83349 11.1248C4.52217 9.30043 6.57167 8.38864 8.98541 8.38864C10.0949 8.38864 11.1375 8.59859 12.1118 9.01721C13.0866 9.43582 13.9871 10.0648 14.8147 10.9033V1.72852ZM9.93101 12.6712C8.49546 12.6712 7.3036 13.1776 6.35372 14.1914C5.40384 15.2052 4.92932 16.5056 4.92932 18.0909C4.92932 19.6762 5.41285 21.0024 6.3786 22.0328C7.34565 23.0637 8.53493 23.5787 9.94817 23.5787C11.3614 23.5787 12.6159 23.0723 13.5774 22.0585C14.5384 21.0448 15.0185 19.7165 15.0185 18.0738C15.0185 16.431 14.5384 15.1623 13.5774 14.1666C12.6163 13.1695 11.4017 12.6712 9.93144 12.6712H9.93101Z" fill="white"/>
<path id="Vector_9" d="M22.3958 10.2768H27.092V17.7669C27.092 19.4992 27.2112 20.7027 27.4506 21.3776C27.6892 22.0511 28.0723 22.5756 28.6017 22.9483C29.1303 23.3224 29.7812 23.5096 30.5547 23.5096C31.3283 23.5096 31.9838 23.3254 32.5244 22.9573C33.0641 22.5889 33.4653 22.0477 33.7261 21.3347C33.9196 20.8026 34.0162 19.6641 34.0162 17.9194V10.2764H38.6617V16.6953C38.6617 19.9242 38.4065 22.133 37.8959 23.322C37.2721 24.7728 36.3535 25.8851 35.1394 26.661C33.9252 27.437 32.3837 27.8252 30.5118 27.8252C28.4812 27.8252 26.8388 27.3714 25.5865 26.4657C24.3328 25.5594 23.4516 24.2963 22.9411 22.6763C22.5781 21.5558 22.3958 19.5167 22.3958 16.5594V10.2764V10.2768Z" fill="white"/>
<path id="Vector_10" d="M41.6147 1.72852H46.259V16.4863L53.0991 10.1295L58.9319 10.1377L50.9574 17.725L59.8852 27.3518H54.1198L46.259 18.8322V27.3518H41.6147V1.72852Z" fill="white"/>
<path id="Vector_11" d="M72.7476 10.1264H77.083V27.3826H72.7476V25.559C71.9007 26.362 71.0517 26.9412 70.2005 27.2956C69.3492 27.6499 68.4268 27.8269 67.4332 27.8269C65.2009 27.8269 63.2711 26.9622 61.6425 25.2329C60.0147 23.5049 59.2004 21.3553 59.2004 18.7862C59.2004 16.2171 59.9877 13.9381 61.5636 12.2357C63.1398 10.5326 65.0529 9.68164 67.3062 9.68164C68.3419 9.68164 69.3149 9.87745 70.2245 10.2686C71.1345 10.6594 71.9749 11.2464 72.7472 12.0292V10.126L72.7476 10.1264ZM68.1887 13.6793C66.8484 13.6793 65.7364 14.1519 64.8495 15.0984C63.9627 16.0448 63.52 17.2583 63.52 18.7382C63.52 20.2181 63.9713 21.456 64.8727 22.4179C65.7754 23.3798 66.8853 23.861 68.2046 23.861C69.5239 23.861 70.6947 23.3884 71.5922 22.4419C72.4894 21.4954 72.9377 20.2558 72.9377 18.7223C72.9377 17.1889 72.4898 16.0046 71.5922 15.0752C70.6951 14.1446 69.5616 13.6793 68.1891 13.6793H68.1887Z" fill="white"/>
<path id="Vector_12" d="M92.5921 10.1264H96.9275V27.3826H92.5921V25.559C91.7452 26.362 90.8961 26.9412 90.0449 27.2956C89.1937 27.6499 88.2713 27.8269 87.2777 27.8269C85.0454 27.8269 83.1156 26.9622 81.487 25.2329C79.8592 23.5049 79.0449 21.3553 79.0449 18.7862C79.0449 16.2171 79.8322 13.9381 81.408 12.2357C82.9843 10.5326 84.8974 9.68164 87.1507 9.68164C88.1864 9.68164 89.1594 9.87745 90.069 10.2686C90.9789 10.6594 91.8194 11.2464 92.5917 12.0292V10.126L92.5921 10.1264ZM88.0332 13.6793C86.6929 13.6793 85.5808 14.1519 84.694 15.0984C83.8072 16.0448 83.3644 17.2583 83.3644 18.7382C83.3644 20.2181 83.8158 21.456 84.7172 22.4179C85.6199 23.3798 86.7298 23.861 88.0491 23.861C89.3684 23.861 90.5392 23.3884 91.4367 22.4419C92.3338 21.4954 92.7822 20.2558 92.7822 18.7223C92.7822 17.1889 92.3343 16.0046 91.4367 15.0752C90.5396 14.1446 89.4061 13.6793 88.0336 13.6793H88.0332Z" fill="white"/>
<path id="Vector_13" d="M99.6841 10.1264H104.02V11.8943C105.004 11.0665 105.894 10.491 106.692 10.1671C107.49 9.84446 108.307 9.68164 109.143 9.68164C110.855 9.68164 112.309 10.2789 113.504 11.4739C114.509 12.4894 115.01 13.9903 115.01 15.9784V27.3821H110.722V19.8257C110.722 17.7664 110.63 16.3983 110.445 15.7226C110.26 15.0465 109.938 14.5319 109.479 14.178C109.019 13.8237 108.451 13.6467 107.775 13.6467C106.899 13.6467 106.145 13.9402 105.518 14.5259C104.89 15.1129 104.453 15.9232 104.21 16.9583C104.083 17.4969 104.02 18.6636 104.02 20.4589V27.3821H99.6841V10.1264Z" fill="white"/>
</g>
</g>
<defs>
<linearGradient id="paint0_linear_293_10307" x1="3.47168" y1="25.5885" x2="348.488" y2="144.623" gradientUnits="userSpaceOnUse">
<stop stop-color="#2D083E" stop-opacity="0"/>
<stop offset="1" stop-color="#08000C"/>
</linearGradient>
<clipPath id="clip0_293_10307">
<rect width="1440" height="1028" fill="white" transform="translate(-53 -57)"/>
</clipPath>
<clipPath id="clip1_293_10307">
<rect width="227" height="36" fill="white" transform="translate(0.301758)"/>
</clipPath>
</defs>
</svg>
